<svg width="141" height="28" viewBox="0 0 141 28" fill="none" xmlns="http://www.w3.org/2000/svg">
<path d="M15.552 4.41309L18.0387 9.70202L23.5995 10.5553L19.5758 14.6699L20.5254 20.4827L15.552 17.7368L10.5786 20.4827L11.5282 14.6699L7.50446 10.5553L13.0653 9.70202L15.552 4.41309Z" fill="#1E1D1D" stroke="#1E1D1D" stroke-width="2" stroke-linecap="round" stroke-linejoin="round"/>
<path d="M62.2278 4.13867L64.7145 9.42761L70.2753 10.2809L66.2515 14.3955L67.2011 20.2083L62.2278 17.4624L57.2544 20.2083L58.204 14.3955L54.1802 10.2809L59.7411 9.42761L62.2278 4.13867Z" fill="#1E1D1D" stroke="#1E1D1D" stroke-width="2" stroke-linecap="round" stroke-linejoin="round"/>
<path d="M85.5656 4.13867L88.0523 9.42761L93.6131 10.2809L89.5894 14.3955L90.539 20.2083L85.5656 17.4624L80.5922 20.2083L81.5418 14.3955L77.518 10.2809L83.0789 9.42761L85.5656 4.13867Z" fill="#1E1D1D" stroke="#1E1D1D" stroke-width="2" stroke-linecap="round" stroke-linejoin="round"/>
<path d="M108.501 4.13867L110.988 9.42761L116.549 10.2809L112.525 14.3955L113.474 20.2083L108.501 17.4624L103.528 20.2083L104.477 14.3955L100.454 10.2809L106.014 9.42761L108.501 4.13867Z" fill="#1E1D1D" stroke="#1E1D1D" stroke-width="2" stroke-linecap="round" stroke-linejoin="round"/>
<path d="M38.8899 4.13867L41.3766 9.42761L46.9374 10.2809L42.9137 14.3955L43.8633 20.2083L38.8899 17.4624L33.9165 20.2083L34.8661 14.3955L30.8423 10.2809L36.4032 9.42761L38.8899 4.13867Z" fill="#1E1D1D" stroke="#1E1D1D" stroke-width="2" stroke-linecap="round" stroke-linejoin="round"/>
</svg>
