<svg width="107" height="17" viewBox="0 0 107 17" fill="none" xmlns="http://www.w3.org/2000/svg">
<path d="M8.8 1.72449L11.169 6.33541L16.4667 7.07935L12.6333 10.6664L13.538 15.734L8.8 13.3402L4.062 15.734L4.96666 10.6664L1.13333 7.07935L6.431 6.33541L8.8 1.72449Z" fill="#1E1D1D" stroke="#1E1D1D" stroke-width="2" stroke-linecap="round" stroke-linejoin="round"/>
<path d="M53.2667 1.72449L55.6357 6.33541L60.9333 7.07935L57.1 10.6664L58.0047 15.734L53.2667 13.3402L48.5287 15.734L49.4333 10.6664L45.6 7.07935L50.8977 6.33541L53.2667 1.72449Z" fill="#1E1D1D" stroke="#1E1D1D" stroke-width="2" stroke-linecap="round" stroke-linejoin="round"/>
<path d="M75.5 1.72449L77.869 6.33541L83.1667 7.07935L79.3333 10.6664L80.238 15.734L75.5 13.3402L70.762 15.734L71.6667 10.6664L67.8333 7.07935L73.131 6.33541L75.5 1.72449Z" fill="#1E1D1D" stroke="#1E1D1D" stroke-width="2" stroke-linecap="round" stroke-linejoin="round"/>
<path d="M97.7333 1.72449L100.102 6.33541L105.4 7.07935L101.567 10.6664L102.471 15.734L97.7333 13.3402L92.9953 15.734L93.9 10.6664L90.0667 7.07935L95.3643 6.33541L97.7333 1.72449Z" fill="#1E1D1D" stroke="#1E1D1D" stroke-width="2" stroke-linecap="round" stroke-linejoin="round"/>
<path d="M31.0333 1.72449L33.4023 6.33541L38.7 7.07935L34.8667 10.6664L35.7713 15.734L31.0333 13.3402L26.2953 15.734L27.2 10.6664L23.3667 7.07935L28.6643 6.33541L31.0333 1.72449Z" fill="#1E1D1D" stroke="#1E1D1D" stroke-width="2" stroke-linecap="round" stroke-linejoin="round"/>
</svg>
