<svg width="160" height="21" viewBox="0 0 160 21" fill="none" xmlns="http://www.w3.org/2000/svg">
<path d="M87.923 15.04C87.923 15.7067 87.7563 16.3333 87.423 16.92C87.103 17.5067 86.623 18 85.983 18.4C85.3563 18.8 84.6096 19.04 83.743 19.12V20.74H82.443V19.12C81.1896 19 80.1763 18.6067 79.403 17.94C78.6296 17.2733 78.243 16.3933 78.243 15.3H80.683C80.723 15.82 80.8896 16.2533 81.183 16.6C81.4763 16.9333 81.8963 17.1467 82.443 17.24V12.84C81.5496 12.6133 80.823 12.3867 80.263 12.16C79.703 11.92 79.223 11.5467 78.823 11.04C78.4363 10.5333 78.243 9.84 78.243 8.96C78.243 7.85333 78.6296 6.94 79.403 6.22C80.1763 5.48667 81.1896 5.06 82.443 4.94V3.32H83.743V4.94C84.9163 5.04667 85.8563 5.42 86.563 6.06C87.283 6.68667 87.6896 7.55333 87.783 8.66H85.343C85.303 8.24667 85.143 7.88 84.863 7.56C84.583 7.22667 84.2096 7 83.743 6.88V11.2C84.6363 11.4133 85.363 11.64 85.923 11.88C86.483 12.1067 86.9563 12.4733 87.343 12.98C87.7296 13.4733 87.923 14.16 87.923 15.04ZM80.563 8.84C80.563 9.38667 80.723 9.81333 81.043 10.12C81.3763 10.4267 81.843 10.6733 82.443 10.86V6.82C81.8696 6.88667 81.4096 7.09333 81.063 7.44C80.7296 7.78667 80.563 8.25333 80.563 8.84ZM83.743 17.24C84.3296 17.1467 84.7896 16.9133 85.123 16.54C85.4563 16.1533 85.623 15.6933 85.623 15.16C85.623 14.6267 85.4563 14.2133 85.123 13.92C84.803 13.6133 84.343 13.3667 83.743 13.18V17.24ZM91.2108 8.02C91.2908 6.78 91.7641 5.81333 92.6308 5.12C93.5108 4.42667 94.6308 4.08 95.9908 4.08C96.9241 4.08 97.7308 4.24667 98.4108 4.58C99.0908 4.91333 99.6041 5.36667 99.9508 5.94C100.297 6.51333 100.471 7.16 100.471 7.88C100.471 8.70667 100.251 9.41333 99.8108 10C99.3708 10.5867 98.8441 10.98 98.2308 11.18V11.26C99.0174 11.5 99.6308 11.94 100.071 12.58C100.511 13.2067 100.731 14.0133 100.731 15C100.731 15.7867 100.551 16.4867 100.191 17.1C99.8308 17.7133 99.2974 18.2 98.5908 18.56C97.8841 18.9067 97.0374 19.08 96.0508 19.08C94.6108 19.08 93.4241 18.7133 92.4908 17.98C91.5708 17.2333 91.0774 16.1667 91.0108 14.78H93.2108C93.2641 15.4867 93.5374 16.0667 94.0308 16.52C94.5241 16.96 95.1908 17.18 96.0308 17.18C96.8441 17.18 97.4708 16.96 97.9108 16.52C98.3508 16.0667 98.5708 15.4867 98.5708 14.78C98.5708 13.8467 98.2708 13.1867 97.6708 12.8C97.0841 12.4 96.1774 12.2 94.9508 12.2H94.4308V10.32H94.9708C96.0508 10.3067 96.8708 10.1267 97.4308 9.78C98.0041 9.43333 98.2908 8.88667 98.2908 8.14C98.2908 7.5 98.0841 6.99333 97.6708 6.62C97.2574 6.23333 96.6708 6.04 95.9108 6.04C95.1641 6.04 94.5841 6.23333 94.1708 6.62C93.7574 6.99333 93.5108 7.46 93.4308 8.02H91.2108ZM103.126 11.52C103.126 9.21333 103.512 7.41333 104.286 6.12C105.072 4.81333 106.419 4.16 108.326 4.16C110.232 4.16 111.572 4.81333 112.346 6.12C113.132 7.41333 113.526 9.21333 113.526 11.52C113.526 13.8533 113.132 15.68 112.346 17C111.572 18.3067 110.232 18.96 108.326 18.96C106.419 18.96 105.072 18.3067 104.286 17C103.512 15.68 103.126 13.8533 103.126 11.52ZM111.286 11.52C111.286 10.44 111.212 9.52667 111.066 8.78C110.932 8.03333 110.652 7.42667 110.226 6.96C109.799 6.48 109.166 6.24 108.326 6.24C107.486 6.24 106.852 6.48 106.426 6.96C105.999 7.42667 105.712 8.03333 105.566 8.78C105.432 9.52667 105.366 10.44 105.366 11.52C105.366 12.64 105.432 13.58 105.566 14.34C105.699 15.1 105.979 15.7133 106.406 16.18C106.846 16.6467 107.486 16.88 108.326 16.88C109.166 16.88 109.799 16.6467 110.226 16.18C110.666 15.7133 110.952 15.1 111.086 14.34C111.219 13.58 111.286 12.64 111.286 11.52ZM115.938 11.52C115.938 9.21333 116.325 7.41333 117.098 6.12C117.885 4.81333 119.232 4.16 121.138 4.16C123.045 4.16 124.385 4.81333 125.158 6.12C125.945 7.41333 126.338 9.21333 126.338 11.52C126.338 13.8533 125.945 15.68 125.158 17C124.385 18.3067 123.045 18.96 121.138 18.96C119.232 18.96 117.885 18.3067 117.098 17C116.325 15.68 115.938 13.8533 115.938 11.52ZM124.098 11.52C124.098 10.44 124.025 9.52667 123.878 8.78C123.745 8.03333 123.465 7.42667 123.038 6.96C122.612 6.48 121.978 6.24 121.138 6.24C120.298 6.24 119.665 6.48 119.238 6.96C118.812 7.42667 118.525 8.03333 118.378 8.78C118.245 9.52667 118.178 10.44 118.178 11.52C118.178 12.64 118.245 13.58 118.378 14.34C118.512 15.1 118.792 15.7133 119.218 16.18C119.658 16.6467 120.298 16.88 121.138 16.88C121.978 16.88 122.612 16.6467 123.038 16.18C123.478 15.7133 123.765 15.1 123.898 14.34C124.032 13.58 124.098 12.64 124.098 11.52ZM129.971 19.14C129.557 19.14 129.211 19 128.931 18.72C128.651 18.44 128.511 18.0933 128.511 17.68C128.511 17.2667 128.651 16.92 128.931 16.64C129.211 16.36 129.557 16.22 129.971 16.22C130.371 16.22 130.711 16.36 130.991 16.64C131.271 16.92 131.411 17.2667 131.411 17.68C131.411 18.0933 131.271 18.44 130.991 18.72C130.711 19 130.371 19.14 129.971 19.14ZM133.575 11.52C133.575 9.21333 133.962 7.41333 134.735 6.12C135.522 4.81333 136.868 4.16 138.775 4.16C140.682 4.16 142.022 4.81333 142.795 6.12C143.582 7.41333 143.975 9.21333 143.975 11.52C143.975 13.8533 143.582 15.68 142.795 17C142.022 18.3067 140.682 18.96 138.775 18.96C136.868 18.96 135.522 18.3067 134.735 17C133.962 15.68 133.575 13.8533 133.575 11.52ZM141.735 11.52C141.735 10.44 141.662 9.52667 141.515 8.78C141.382 8.03333 141.102 7.42667 140.675 6.96C140.248 6.48 139.615 6.24 138.775 6.24C137.935 6.24 137.302 6.48 136.875 6.96C136.448 7.42667 136.162 8.03333 136.015 8.78C135.882 9.52667 135.815 10.44 135.815 11.52C135.815 12.64 135.882 13.58 136.015 14.34C136.148 15.1 136.428 15.7133 136.855 16.18C137.295 16.6467 137.935 16.88 138.775 16.88C139.615 16.88 140.248 16.6467 140.675 16.18C141.115 15.7133 141.402 15.1 141.535 14.34C141.668 13.58 141.735 12.64 141.735 11.52ZM146.388 11.52C146.388 9.21333 146.774 7.41333 147.548 6.12C148.334 4.81333 149.681 4.16 151.588 4.16C153.494 4.16 154.834 4.81333 155.608 6.12C156.394 7.41333 156.788 9.21333 156.788 11.52C156.788 13.8533 156.394 15.68 155.608 17C154.834 18.3067 153.494 18.96 151.588 18.96C149.681 18.96 148.334 18.3067 147.548 17C146.774 15.68 146.388 13.8533 146.388 11.52ZM154.548 11.52C154.548 10.44 154.474 9.52667 154.328 8.78C154.194 8.03333 153.914 7.42667 153.488 6.96C153.061 6.48 152.428 6.24 151.588 6.24C150.748 6.24 150.114 6.48 149.688 6.96C149.261 7.42667 148.974 8.03333 148.828 8.78C148.694 9.52667 148.628 10.44 148.628 11.52C148.628 12.64 148.694 13.58 148.828 14.34C148.961 15.1 149.241 15.7133 149.668 16.18C150.108 16.6467 150.748 16.88 151.588 16.88C152.428 16.88 153.061 16.6467 153.488 16.18C153.928 15.7133 154.214 15.1 154.348 14.34C154.481 13.58 154.548 12.64 154.548 11.52Z" fill="#8B8E99"/>
<path d="M160 12.5L73 12.5" stroke="#8B8E99" stroke-width="2"/>
</svg>
